<svg width="43" height="43" viewBox="0 0 43 43" fill="none" xmlns="http://www.w3.org/2000/svg">
<path fill-rule="evenodd" clip-rule="evenodd" d="M21.5 0C9.66292 0 0 9.66292 0 21.5C0 33.3371 9.66292 43 21.5 43C33.3371 43 43 33.3371 43 21.5V0H21.5ZM21.5 35.632C13.7697 35.632 7.36798 29.3511 7.36798 21.5C7.36798 13.7697 13.6489 7.36798 21.5 7.36798C29.2303 7.36798 35.632 13.6489 35.632 21.5C35.632 29.3511 29.3511 35.632 21.5 35.632Z" fill="#165DFC"/>
<path fill-rule="evenodd" clip-rule="evenodd" d="M21.5 13.4072C25.9691 13.4072 29.5927 17.0308 29.5927 21.4999C29.5927 25.969 25.9691 29.7134 21.5 29.7134C17.0309 29.7134 13.4073 26.0898 13.4073 21.4999C13.4073 17.0308 17.0309 13.4072 21.5 13.4072Z" fill="#165DFC"/>
</svg>
